<?xml version="1.0"?>
<svg version="1.1" xmlns="http://www.w3.org/2000/svg" width="400" height="200" style="border: dashed 2px #aaa"><path fill="#4d4f57" d="M30.68359375,123.984375l-6.875-22.40234375l-0.17578125,0q0.37109375,6.8359375,0.37109375,9.12109375l0,13.28125l-5.41015625,0l0-28.5546875l8.2421875,0l6.7578125,21.8359375l0.1171875,0l7.16796875-21.8359375l8.2421875,0l0,28.5546875l-5.64453125,0l0-13.515625q0-0.95703125,0.029296875-2.20703125t0.263671875-6.640625l-0.17578125,0l-7.36328125,22.36328125l-5.546875,0z M59.0580078125,123.984375l0-28.5546875l6.0546875,0l0,28.5546875l-6.0546875,0z M81.104296875,108.10546875l1.953125,0q2.87109375,0,4.23828125-0.95703125t1.3671875-3.0078125q0-2.03125-1.396484375-2.890625t-4.326171875-0.859375l-1.8359375,0l0,7.71484375z M81.104296875,113.02734375l0,10.95703125l-6.0546875,0l0-28.5546875l8.3203125,0q5.8203125,0,8.61328125,2.119140625t2.79296875,6.435546875q0,2.51953125-1.38671875,4.482421875t-3.92578125,3.076171875q6.4453125,9.62890625,8.3984375,12.44140625l-6.71875,0l-6.81640625-10.95703125l-3.22265625,0z M121.6857421875,123.984375l-2.0703125-6.796875l-10.41015625,0l-2.0703125,6.796875l-6.5234375,0l10.078125-28.671875l7.40234375,0l10.1171875,28.671875l-6.5234375,0z M118.1701171875,112.109375q-2.87109375-9.23828125-3.232421875-10.44921875t-0.517578125-1.9140625q-0.64453125,2.5-3.69140625,12.36328125l7.44140625,0z M170.6611328125,123.984375l-6.875,0l-7.48046875-12.03125l-2.55859375,1.8359375l0,10.1953125l-6.0546875,0l0-28.5546875l6.0546875,0l0,13.06640625l2.3828125-3.359375l7.734375-9.70703125l6.71875,0l-9.9609375,12.63671875z M202.922265625,109.66796875q0,7.08984375-3.515625,10.8984375t-10.078125,3.80859375t-10.078125-3.80859375t-3.515625-10.9375t3.525390625-10.888671875t10.107421875-3.759765625t10.068359375,3.7890625t3.486328125,10.8984375z M182.082421875,109.66796875q0,4.78515625,1.81640625,7.20703125t5.4296875,2.421875q7.24609375,0,7.24609375-9.62890625q0-9.6484375-7.20703125-9.6484375q-3.61328125,0-5.44921875,2.431640625t-1.8359375,7.216796875z M211.5896484375,123.984375l0-28.5546875l6.0546875,0l0,28.5546875l-6.0546875,0z M243.8703125,95.4296875l6.11328125,0l-9.70703125,28.5546875l-6.6015625,0l-9.6875-28.5546875l6.11328125,0l5.37109375,16.9921875q0.44921875,1.50390625,0.927734375,3.505859375t0.595703125,2.783203125q0.21484375-1.796875,1.46484375-6.2890625z M279.5689453125,95.4296875l0,18.4765625q0,3.1640625-1.416015625,5.546875t-4.091796875,3.65234375t-6.328125,1.26953125q-5.5078125,0-8.5546875-2.822265625t-3.046875-7.724609375l0-18.3984375l6.03515625,0l0,17.48046875q0,3.30078125,1.328125,4.84375t4.39453125,1.54296875q2.96875,0,4.306640625-1.552734375t1.337890625-4.873046875l0-17.44140625l6.03515625,0z M289.310546875,123.984375l0-28.5546875l6.0546875,0l0,23.5546875l11.58203125,0l0,5l-17.63671875,0z M332.1380859375,123.984375l-2.0703125-6.796875l-10.41015625,0l-2.0703125,6.796875l-6.5234375,0l10.078125-28.671875l7.40234375,0l10.1171875,28.671875l-6.5234375,0z M328.6224609375,112.109375q-2.87109375-9.23828125-3.232421875-10.44921875t-0.517578125-1.9140625q-0.64453125,2.5-3.69140625,12.36328125l7.44140625,0z"/><path fill="#" d=""/></svg>
